<?xml version="1.0" encoding="UTF-8"?>
<svg id="Camada_2" xmlns="http://www.w3.org/2000/svg" viewBox="0 0 136.4 136.5">
  <defs>
    <style>
      .cls-1 {
        fill: #e21a6f;
      }

      .cls-2 {
        fill: #ee7aab;
      }

      .cls-3 {
        fill: #fff;
      }

      .cls-3, .cls-4 {
        isolation: isolate;
        opacity: .2;
      }

      .cls-5 {
        fill: #f18fb8;
      }

      .cls-4 {
        fill: #e28eb0;
      }
    </style>
  </defs>
  <g id="Camada_1-2" data-name="Camada_1">
    <g>
      <g>
        <g>
          <path class="cls-1" d="M27.8,108.6l-23.3-23.3c-2.8-2.9-4.4-6.7-4.5-10.8,0-1.8,1-4.7,1.8-6.3L23.3,23.3l4.5,85.3h0Z"/>
          <path class="cls-5" d="M107.7,27.8l-23.3-23.3c-2-2-6.3-4.5-9.9-4.5s-6.1.6-8.1,1.8L23.3,23.3l84.4,4.5h0ZM55.6,136.5h56.6v-24.2l-42.2-13.5-38.6,13.5,24.2,24.2h0Z"/>
          <path class="cls-3" d="M28.7,109.5c-3.6-3.6-4.5-7.2-4.5-13.5V24.2l-.9-.9v72.7c0,6.3,0,8.1,5.4,13.5l2.7,2.7-2.7-2.7h0Z"/>
          <path class="cls-4" d="M135.5,55.7v55.7h-24.2l.9.9h24.2v-55.7l-.9-.9h0Z"/>
          <path class="cls-3" d="M107.7,27.8c-4.4-4.5-8.1-4.5-13.5-4.5H23.3l.9.9h70c2.7,0,9.4-.5,13.5,3.6h0Z"/>
        </g>
        <path class="cls-1" d="M107.7,27.8c-4-4-7.6-4.5-12.6-4.5H23.3l32,32c3.3-3.3,7.9-5.4,12.9-5.4,10.1,0,18.3,8.2,18.3,18.3s-2,9.6-5.4,12.9l31.1,31.1h24.2v-55.7l-28.7-28.7h0Z"/>
      </g>
      <path class="cls-2" d="M83,79c-3.3,4.5-8.7,7.5-14.8,7.5-10.1,0-18.3-8.2-18.3-18.3s2.9-11.3,7.3-14.6L23.3,23.4v72.7c0,7.2.9,9,4.5,12.6l3.6,3.6h80.8l-29.2-33.2v-.1Z"/>
    </g>
  </g>
</svg>