<svg width="20" height="20" viewBox="0 0 20 20" fill="none" xmlns="http://www.w3.org/2000/svg">
  <path d="M7.5 15.8333C3.33333 17.0833 3.33333 13.75 1.66667 13.3333M13.3333 18.3333V15.1583C13.3713 14.7589 13.3246 14.3563 13.1967 13.9787C13.0689 13.6012 12.8631 13.2573 12.5933 12.9666C15.1667 12.6833 17.9167 11.675 17.9167 7.13329C17.9165 5.9538 17.4688 4.81745 16.6667 3.96663C17.0486 2.93984 17.024 1.79943 16.5983 0.791626C16.5983 0.791626 15.5983 0.508293 13.3333 1.99996C11.4449 1.49106 9.45513 1.49106 7.56667 1.99996C5.30167 0.508293 4.30167 0.791626 4.30167 0.791626C3.87599 1.79943 3.85139 2.93984 4.23333 3.96663C3.42551 4.82325 2.97671 5.97099 2.98333 7.15829C2.98333 11.6666 5.73333 12.675 8.30667 13C8.04 13.2866 7.83562 13.6253 7.70779 13.9971C7.57996 14.3689 7.53118 14.7657 7.56667 15.1583V18.3333" stroke="#333333" stroke-width="1.5" stroke-linecap="round" stroke-linejoin="round"/>
</svg>