<?xml version="1.0" encoding="UTF-8"?>
<svg id="Camada_2" xmlns="http://www.w3.org/2000/svg" viewBox="0 0 656.3 136.5">
  <defs>
    <style>
      .cls-1 {
        fill: #e21a6f;
      }

      .cls-2 {
        fill: #ee7aab;
      }

      .cls-3 {
        fill: #fff;
      }

      .cls-3, .cls-4 {
        isolation: isolate;
        opacity: .2;
      }

      .cls-5 {
        fill: #f18fb8;
      }

      .cls-4 {
        fill: #e28eb0;
      }
    </style>
  </defs>
  <g id="Camada_1-2" data-name="Camada_1">
    <g>
      <g>
        <g>
          <g>
            <path class="cls-1" d="M27.8,108.6l-23.3-23.3c-2.8-2.9-4.4-6.7-4.5-10.8,0-1.8,1-4.7,1.8-6.3L23.3,23.3l4.5,85.3h0Z"/>
            <path class="cls-5" d="M107.7,27.8l-23.3-23.3c-2-2-6.3-4.5-9.9-4.5s-6.1.6-8.1,1.8L23.3,23.3l84.4,4.5h0ZM55.6,136.5h56.6v-24.2l-42.2-13.5-38.6,13.5,24.2,24.2h0Z"/>
            <path class="cls-3" d="M28.7,109.5c-3.6-3.6-4.5-7.2-4.5-13.5V24.2l-.9-.9v72.7c0,6.3,0,8.1,5.4,13.5l2.7,2.7-2.7-2.7h0Z"/>
            <path class="cls-4" d="M135.5,55.7v55.7h-24.2l.9.9h24.2v-55.7l-.9-.9h0Z"/>
            <path class="cls-3" d="M107.7,27.8c-4.4-4.5-8.1-4.5-13.5-4.5H23.3l.9.9h70c2.7,0,9.4-.5,13.5,3.6h0Z"/>
          </g>
          <path class="cls-1" d="M107.7,27.8c-4-4-7.6-4.5-12.6-4.5H23.3l32,32c3.3-3.3,7.9-5.4,12.9-5.4,10.1,0,18.3,8.2,18.3,18.3s-2,9.6-5.4,12.9l31.1,31.1h24.2v-55.7l-28.7-28.7h0Z"/>
        </g>
        <path class="cls-2" d="M83,79c-3.3,4.5-8.7,7.5-14.8,7.5-10.1,0-18.3-8.2-18.3-18.3s2.9-11.3,7.3-14.6L23.3,23.4v72.7c0,7.2.9,9,4.5,12.6l3.6,3.6h80.8l-29.2-33.2v-.1Z"/>
      </g>
      <g>
        <path d="M273.4,51.6c-20.1,0-33.7,19.9-33.7,38.9s8.2,23.2,22.1,23.2c20.1,0,33.7-19.9,33.7-39-.1-13.5-8.2-23.1-22.1-23.1ZM282.1,75.5c0,12.3-8.4,26.1-18.9,26.1-7.3,0-10.3-5.3-10.3-11.9,0-12.2,8.4-26.1,18.9-26.1s10.3,5.3,10.3,11.9Z"/>
        <path d="M207.9,22.4h0c-7,0-13.8.9-16.6,1.6-4,1.1-5,2.9-5.8,6.5l-15.8,73.5c-.3,1.5-.5,2.8-.5,4,0,3.6,2.4,6,6.3,6s6-2.8,6.9-7l4.5-20.9c3.1.4,7.3.8,13.2.8,26,0,42.1-14,42.1-35.2,0-18.7-13-29.3-34.3-29.3ZM199.4,74.8c-4,0-7.2,0-10-.5l8.4-39c2.6-.4,6.5-.9,10.5-.9,13.8,0,20.8,6.5,20.8,17.3s-10,23.1-29.7,23.1Z"/>
        <path d="M328,29.8h0c0-3.6-2.5-6-6.4-6s-6,2.8-6.9,7l-15.7,72.8c-.4,1.5-.6,2.8-.6,4,0,3.6,2.5,6,6.3,6s6.1-2.8,7-7l15.7-72.8c.2-1.5.6-2.8.6-4Z"/>
        <path d="M511.5,26.4l-7.9,34.2c-3.5-4.8.9-7.6-16.3-7.6s-31.03,12.62-35.37,28.98c-4.56,10.34-9.87,19.42-13.23,19.42s-2.4-1.3-2.4-3.4c0-6.3,3.5-21.6,5-29,.5-2.8.8-3.9.8-5.5,0-5.5-9.2-12-21.1-12s-26.3,8.7-32.5,21.7c-9.3,16.4-17.8,28.2-22,28.2s-2.5-2.4-3-4.6l-3.1-17.3,19.2-15.7c1.8-1.5,4-3.6,4-6.4s-2.3-5.6-5.6-5.6-4.6,1.5-6.8,3.3l-28.8,23.8,9.7-44.9c.3-1.5.6-2.8.6-4,0-3.6-2.5-6-6.4-6s-6,2.8-6.9,7l-15.7,72.8c-.4,1.5-.6,2.8-.6,4,0,3.6,2.5,6,6.3,6s6.1-2.8,7-7l2-9.4,11.8-9.5,2.9,14.5c1.1,5.8,4.1,11.4,11.9,11.4s13.8-7.1,19.9-16.6c1.8,10,9,16.6,18.8,16.6s16.7-5.9,21.1-13.8v.3c0,8.2,4.1,13.5,11.4,13.5,5.92,0,11.78-7.17,16.12-13.4,3.09,8.12,10.42,13.4,20.68,13.4,6.8,0,15.1-3,20.6-9.1l-1.4,7.7h11.2l19.9-86h-11.8ZM426.8,77.1h0c-3.6,15.7-11.4,24.6-20.2,24.6s-9.2-4.5-9.2-11.3c0-13.3,9.7-27.6,22.6-27.6s6.9,1.1,9.5,2.8l-2.7,11.5ZM496.1,92.7c-4.6,6.9-7.4,10.3-18.7,10.3s-16-10.1-13.8-19.6,10.6-19.8,23.2-19.8v-.1c5.7,0,11.5,2.9,14.1,8.4l-4.8,20.8Z"/>
        <path d="M551.2,53c-8.2,0-17.7,2.5-24.7,5.5l1.1,9.5c5.4-2.7,10.1-5.2,19.4-5.2s12.1,4.9,10.1,13.4l-.4,1.7c-4.5-1,1.5-1.3-11.1-1.3s-26.7,4.6-30.1,19.2c-2.9,12.4,5.7,17.9,16.5,17.9,7.1,0,12.9-2,18.6-7.2l-1,5.9h11.1l8.1-35.2c3.5-15-1-24.2-17.6-24.2ZM552.2,98c-5.2,3.6-10.5,6.4-16.2,6.4s-10.6-.8-8.7-9.1c1.9-8.3,11.1-10.1,17.9-10.1,2.8,0,5.8.2,9.6,1l.1.1-2.7,11.7Z"/>
        <path d="M594.3,63.4v-.1l1.7-9.1h-11.2l-13.4,58.1h11.8l9-39c4.6-5.6,9.7-8.9,15.3-8.9,2.2,0,3.7.4,5.2,1.3l5.2-11.9c-2.1-.6-.4-.8-6.5-.8s-12.3,4.3-17.1,10.4Z"/>
        <path d="M632.3,89.7l5.8-25.2h15.8l2.4-10.2h-15.9l3.2-13.7h-11.2l-3.7,13.7h-7.6l-2.4,10.2h7.6l-6.4,27.6c-.9,4.3-1.4,8.3-.9,11.5.9,6,5.3,9.9,13.7,9.9,4,0,8.7-1.1,12.2-2.8l-1.3-9.3c-2,.9-1.8,1.6-6.9,1.6s-6.2-3.2-5.3-8.7c.2-1.7.6-3.1.9-4.6Z"/>
      </g>
    </g>
  </g>
</svg>