<svg width="120" height="120" viewBox="0 0 120 120" fill="none" xmlns="http://www.w3.org/2000/svg">
  <path d="M60 120C93.1371 120 120 93.1371 120 60C120 26.8629 93.1371 0 60 0C26.8629 0 0 26.8629 0 60C0 93.1371 26.8629 120 60 120Z" fill="#F5F5F5"/>
  <path d="M84.375 60C84.375 73.4619 73.4619 84.375 60 84.375C46.5381 84.375 35.625 73.4619 35.625 60C35.625 46.5381 46.5381 35.625 60 35.625C73.4619 35.625 84.375 46.5381 84.375 60Z" fill="#E91E63"/>
  <path d="M60 105C84.8528 105 105 84.8528 105 60C105 35.1472 84.8528 15 60 15C35.1472 15 15 35.1472 15 60C15 84.8528 35.1472 105 60 105Z" stroke="#E91E63" stroke-width="6"/>
</svg>