<?xml version="1.0" encoding="UTF-8"?>
<svg id="Layer_2" data-name="Layer 2" xmlns="http://www.w3.org/2000/svg" viewBox="0 0 24 24">
  <g id="Camada_2" data-name="Camada 2">
    <path d="M22.5,1.5v21h-2.25v1.5h3.75V0h-3.75v1.5h2.25ZM7.46,7.95v1.15h.04c.57-.89,1.56-1.41,2.61-1.39.54,0,1.03.1,1.48.32.44.2.78.58,1.01,1.1.26-.37.6-.7,1.03-.99.44-.28.95-.43,1.55-.43.45,0,.87.06,1.26.17.38.11.71.29.99.53.27.24.49.56.64.95.15.4.23.86.23,1.42v5.72h-2.34v-4.85c0-.29-.01-.56-.04-.8-.01-.23-.08-.46-.18-.67-.1-.19-.25-.35-.44-.45-.24-.12-.51-.17-.78-.16-.33,0-.6.06-.8.19-.2.12-.37.29-.48.5-.12.21-.2.45-.23.69-.04.26-.06.52-.06.78v4.77h-2.35v-5.55c-.02-.24-.07-.47-.15-.69-.08-.2-.23-.38-.42-.5-.26-.15-.55-.22-.85-.2-.15.01-.3.04-.44.08-.19.06-.37.15-.52.28-.18.14-.32.34-.44.6s-.18.6-.18,1.02v4.96h-2.35V7.94h2.21ZM1.5,1.5v21h2.25v1.5H0V0h3.75v1.5H1.5Z"/>
  </g>
</svg>