<?xml version="1.0" encoding="UTF-8"?>
<svg id="Layer_2" data-name="Layer 2" xmlns="http://www.w3.org/2000/svg" viewBox="0 0 347.04 119.01">
  <g id="Layer_1-2" data-name="Layer 1">
    <path d="M59.52,38.61v-8.8c0-3.19-1.93-6.07-4.88-7.28L0,0v4.88l48.67,20c1.02.44,1.5,1.63,1.08,2.66-.19.49-.59.89-1.08,1.08L0,48.74v19.63l29.33-12.1,19.28,7.95c1.02.42,1.51,1.58,1.1,2.61,0,.01-.01.03-.02.04-.19.49-.59.89-1.08,1.08L0,88.01v31l54.57-22.47c2.95-1.21,4.88-4.09,4.88-7.28v-20.17c0-3.2-1.92-6.08-4.88-7.29l-19.33-8,19.33-7.95c3-1.15,4.97-4.03,4.95-7.24Z"/>
    <path d="M104.52,7.26c.57-1,1.67-1.58,2.82-1.5,2,0,3.68,1.65,3.68,4.48s-1.71,4.48-3.68,4.48c-1.15.08-2.25-.5-2.82-1.5v4.1h-1.45V5.9h1.45v1.36ZM109.44,10.26c0-2-1-3.23-2.47-3.23-1.29,0-2.51,1-2.51,3.23s1.22,3.23,2.51,3.23c1.55-.02,2.49-1.2,2.49-3.25l-.02.02Z"/>
    <path d="M116.13,7.36c-1.34,0-2,.75-2,2.64v4.54h-1.46V5.9h1.42v1.51c.43-.96,1.38-1.57,2.43-1.55h.43v1.55c-.3-.02-.58-.05-.82-.05Z"/>
    <path d="M121.7,14.72c-2,0-4.12-1.36-4.12-4.48s2.12-4.48,4.12-4.48,4.13,1.36,4.13,4.48-2.12,4.48-4.13,4.48ZM124.28,10.24c0-2.29-1.26-3.2-2.58-3.2s-2.57.85-2.57,3.2,1.26,3.2,2.57,3.2,2.58-.99,2.58-3.2h0Z"/>
    <path d="M128.86,5.9v9c0,1.79-.37,2.37-2,2.37h-.74v-1.22h.4c.75,0,.89-.22.89-1.12V5.9h1.45ZM128.86,4.67h-1.46v-1.76h1.46v1.76Z"/>
    <path d="M134.68,13.44c1.01.1,1.97-.48,2.35-1.42h1.49c-.49,1.69-2.1,2.82-3.86,2.7-2.72,0-4.22-2-4.22-4.49-.18-2.28,1.52-4.27,3.8-4.46.12,0,.25-.01.37-.01,2.63,0,4.21,2.21,4,4.93h-6.59c-.06,1.46,1.09,2.69,2.55,2.75.04,0,.07,0,.11,0ZM137.11,9.44c-.09-1.4-1.29-2.46-2.69-2.38-1.28.08-2.3,1.1-2.38,2.38h5.07Z"/>
    <path d="M146.04,8.78c-.23-1.04-1.16-1.77-2.23-1.74-1.29,0-2.48,1-2.48,3.17s1.2,3.23,2.48,3.23c1.08.04,2.03-.68,2.29-1.73h1.51c-.4,1.79-2.01,3.04-3.84,3-2.47,0-4-1.87-4-4.49s1.62-4.47,4.16-4.47c1.78-.03,3.31,1.24,3.6,3l-1.49.03Z"/>
    <path d="M150.99,3.74v2.16h1.63v1.17h-1.63v5.11c0,.89.07,1.12.9,1.12h.73v1.24h-1.05c-1.65,0-2-.36-2-2.16v-5.31h-1.36v-1.17h1.31v-2.16h1.47Z"/>
    <path d="M160.95,6.99c-.85,0-1.81.31-1.81,1.09s.48,1,1.31,1.17l1.22.24c1.56.3,2.94.89,2.94,2.56s-1.54,2.67-3.5,2.67c-1.83.14-3.46-1.18-3.7-3h1.53c.13,1.09,1.11,1.88,2.2,1.76,1.1,0,2-.48,2-1.28s-.82-1.23-1.75-1.42l-1.28-.26c-1.17-.24-2.45-.79-2.45-2.39s1.54-2.4,3.45-2.4c1.67-.15,3.16,1.03,3.41,2.69h-1.52c-.21-.94-1.1-1.56-2.05-1.43Z"/>
    <path d="M168.92,14.72c-2,0-2.75-1.34-2.75-3.31v-5.51h1.45v5.08c0,1.33.23,2.48,1.81,2.48,1.38,0,2.19-1,2.19-2.82v-4.74h1.46v8.64h-1.46v-1.23c-.56.95-1.6,1.49-2.7,1.41Z"/>
    <path d="M176.65,7.26c.57-1,1.67-1.58,2.82-1.5,2,0,3.68,1.65,3.68,4.48s-1.72,4.48-3.68,4.48c-1.15.08-2.25-.5-2.82-1.5v4.1h-1.46V5.9h1.46v1.36ZM181.56,10.26c0-2-1-3.23-2.46-3.23-1.3,0-2.52,1-2.52,3.23s1.22,3.23,2.52,3.23c1.49-.02,2.42-1.2,2.42-3.25l.04.02Z"/>
    <path d="M186.22,7.26c.57-1,1.67-1.58,2.82-1.5,2,0,3.68,1.65,3.68,4.48s-1.71,4.48-3.68,4.48c-1.15.08-2.25-.5-2.82-1.5v4.1h-1.46V5.9h1.46v1.36ZM191.13,10.26c0-2-1-3.23-2.46-3.23-1.3,0-2.51,1-2.51,3.23s1.21,3.23,2.51,3.23c1.49-.02,2.46-1.2,2.46-3.25v.02Z"/>
    <path d="M197.97,14.72c-2,0-4.13-1.36-4.13-4.48s2.12-4.48,4.13-4.48c2.49,0,4.5,2.01,4.5,4.5s-2.01,4.5-4.5,4.5v-.04ZM200.52,10.24c0-2.29-1.26-3.2-2.57-3.2s-2.58.85-2.58,3.2,1.26,3.2,2.58,3.2,2.57-.99,2.57-3.2Z"/>
    <path d="M207.19,7.36c-1.34,0-2,.75-2,2.64v4.54h-1.47V5.9h1.43v1.51c.42-.96,1.38-1.58,2.43-1.55h.43v1.55c-.3-.02-.58-.05-.82-.05Z"/>
    <path d="M211.58,3.74v2.16h1.64v1.17h-1.64v5.11c0,.89.07,1.12.9,1.12h.74v1.24h-1.06c-1.65,0-2-.36-2-2.16v-5.31h-1.36v-1.17h1.36v-2.16h1.42Z"/>
    <path d="M218.12,13.44c1.01.1,1.97-.48,2.36-1.42h1.5c-.49,1.69-2.1,2.82-3.86,2.7-2.72,0-4.22-2-4.22-4.49-.18-2.29,1.53-4.28,3.82-4.46.12,0,.24-.01.36-.01,2.62,0,4.21,2.21,4,4.93h-6.56c-.07,1.45,1.06,2.68,2.51,2.75.03,0,.06,0,.09,0ZM220.56,9.44c0-1.4-1.14-2.54-2.55-2.53-1.4,0-2.53,1.14-2.53,2.53h5.08Z"/>
    <path d="M231.15,2.91v11.63h-1.46v-1.29c-.57,1-1.67,1.58-2.82,1.5-2,0-3.68-1.63-3.68-4.48s1.71-4.48,3.68-4.48c1.15-.08,2.25.5,2.82,1.5V2.91h1.46ZM224.78,10.24c0,2,1,3.23,2.46,3.23,1.3,0,2.51-1,2.51-3.23s-1.21-3.23-2.51-3.23c-1.49,0-2.46,1.18-2.46,3.23Z"/>
    <path d="M238.63,7.26c.57-1,1.67-1.58,2.82-1.5,2,0,3.68,1.65,3.68,4.48s-1.71,4.48-3.68,4.48c-1.15.08-2.25-.5-2.82-1.5v1.32h-1.46V2.91h1.46v4.35ZM243.55,10.26c0-2-1-3.23-2.47-3.23-1.3,0-2.51,1-2.51,3.23s1.21,3.23,2.51,3.23c1.49-.02,2.44-1.2,2.44-3.25l.03.02Z"/>
    <path d="M249.78,14.88c-.62,1.88-1.07,2.44-3,2.44h-.76v-1.22h.6c1,0,1.42-.06,1.8-1.41l.1-.15-3.11-8.61h1.62l2.19,6.65,2.13-6.65h1.52l-3.09,8.95Z"/>
    <path d="M115.37,35.26l3.53,13.13,3.4-13.13h3.22l-5.11,17.76h-2.74l-3.93-14.3-3.79,14.3h-2.73l-5.12-17.76h3.23l3.4,13.13,3.54-13.13h3.1Z"/>
    <path d="M134.95,50.8c2.08.19,4.05-.99,4.85-2.93h3.1c-.82,3.07-3.63,5.57-7.95,5.57-5.61,0-8.71-4-8.71-9.27,0-5.61,3.76-9.21,8.61-9.21,5.41,0,8.68,4.56,8.28,10.17h-13.61c-.12,3.01,2.22,5.54,5.23,5.67.07,0,.14,0,.2,0ZM139.95,42.55c-.28-2.88-2.84-4.99-5.72-4.71-2.49.24-4.46,2.21-4.71,4.7h10.43Z"/>
    <path d="M149.24,38.06c1.19-2.05,3.44-3.25,5.81-3.1,4.06,0,7.59,3.4,7.59,9.24s-3.53,9.24-7.59,9.24c-2.37.15-4.62-1.05-5.81-3.1v2.68h-3v-23.93h3v8.97ZM159.37,44.2c0-4.22-2-6.66-5.08-6.66-2.67,0-5.18,2-5.18,6.66s2.51,6.67,5.18,6.67c3.07,0,5.08-2.44,5.08-6.67Z"/>
    <path d="M171.76,41.76h-.5v-2.74h.4c4.16,0,6.37-1.15,6.37-4,0-2.57-2.11-3.89-4.66-3.89-2.66-.21-4.99,1.77-5.2,4.43,0,.07,0,.15-.01.22h-3.1c.36-4.22,3.36-7.16,8.38-7.16,4.16,0,7.76,1.65,7.76,6.07,0,2.49-1.56,4.71-3.9,5.55,3.57,1.12,4.56,3.49,4.56,6,0,4.82-4.1,7.16-8.65,7.16-5.61,0-8.19-3.49-8.52-7.49h3.11c.33,2.94,2.07,5,5.44,5,3.17,0,5.41-1.65,5.41-4.62,0-3.41-3.07-4.53-6.89-4.53Z"/>
    <path d="M198.92,29.09h1.6v2.51h-1.49c-1.58,0-1.85.36-1.85,2.21v1.45h3.34v2.41h-3.34v15.35h-3v-15.35h-2.48v-2.41h2.48v-1.29c-.05-3.69.71-4.88,4.74-4.88Z"/>
    <path d="M210.05,53.44c-4.12,0-8.51-2.8-8.51-9.24s4.39-9.24,8.51-9.24,8.52,2.81,8.52,9.24-4.39,9.24-8.52,9.24ZM215.37,44.2c0-4.72-2.61-6.6-5.32-6.6s-5.31,1.75-5.31,6.6,2.61,6.6,5.31,6.6,5.32-2.04,5.32-6.6h0Z"/>
    <path d="M227.25,53.44c-4.12,0-5.67-2.77-5.67-6.83v-11.35h3v10.46c0,2.74.46,5.12,3.73,5.12,2.84,0,4.52-2,4.52-5.81v-9.77h3v17.76h-3v-2.55c-1.15,1.97-3.31,3.12-5.58,2.97Z"/>
    <path d="M248.76,34.96c4.3,0,5.85,2.77,5.85,6.83v11.23h-3v-10.34c0-2.73-.46-5.11-3.89-5.11-2.91,0-4.69,2-4.69,5.81v9.64h-3v-17.76h3v2.67c1.2-1.99,3.41-3.14,5.73-2.97Z"/>
    <path d="M273.98,29.09v23.93h-3v-2.68c-1.19,2.05-3.44,3.25-5.81,3.1-4.06,0-7.59-3.36-7.59-9.24s3.53-9.24,7.59-9.24c2.37-.15,4.62,1.05,5.81,3.1v-9l3,.03ZM260.85,44.2c0,4.23,2,6.67,5.08,6.67,2.67,0,5.18-2,5.18-6.67s-2.51-6.66-5.18-6.66c-3.07,0-5.08,2.44-5.08,6.66Z"/>
    <path d="M289.12,42.09v-.43c0-3.23-1.82-4.32-4-4.32-2.47,0-3.92,1.35-4.06,3.53h-3.1c.3-3.83,3.66-6,7.13-6,4.89,0,7.1,2.34,7.06,7.32v4.1c-.07,2.24.08,4.49.46,6.7h-3c-.13-.81-.21-1.63-.23-2.45-1.09,1.82-2.94,2.87-6.08,2.87-3.33,0-6.1-1.84-6.1-5.11-.09-4.16,4.63-5.38,11.92-6.21ZM280.44,48.26c0,1.69,1.29,2.81,3.43,2.81,2.81,0,5.48-1.29,5.48-5.48v-1.12c-5.44.56-8.91,1.35-8.91,3.79Z"/>
    <path d="M299.8,30.8v4.46h3.37v2.41h-3.37v10.53c0,1.85.14,2.31,1.85,2.31h1.52v2.51h-2.18c-3.4,0-4.19-.76-4.19-4.46v-10.89h-2.8v-2.41h2.8v-4.46h3Z"/>
    <path d="M309.04,32.72h-3v-3.63h3v3.63ZM309.04,53.02h-3v-17.76h3v17.76Z"/>
    <path d="M320.75,53.44c-4.13,0-8.52-2.8-8.52-9.24s4.39-9.24,8.52-9.24,8.51,2.81,8.51,9.24-4.39,9.24-8.51,9.24ZM326.06,44.2c0-4.72-2.61-6.6-5.31-6.6s-5.32,1.75-5.32,6.6,2.61,6.6,5.32,6.6,5.31-2.04,5.31-6.6h0Z"/>
    <path d="M341.2,34.96c4.29,0,5.84,2.77,5.84,6.83v11.23h-3v-10.34c0-2.73-.46-5.11-3.9-5.11-2.9,0-4.68,2-4.68,5.81v9.64h-3v-17.76h3v2.67c1.2-1.99,3.42-3.14,5.74-2.97Z"/>
    <path d="M119.26,72.02v15.38c0,3.63-.66,5.12-1.68,6.24-1.62,1.62-3.85,2.48-6.14,2.34-4,0-6.73-1.85-7.29-5.44h3.2c.39,1.58,1.35,2.8,4.12,2.8,1.34.1,2.66-.38,3.63-1.32.66-.69,1.16-1.52,1.16-3.93v-1.68c-1.13,2.03-3.32,3.22-5.64,3.07-3.93,0-7.53-3.17-7.53-8.88s3.6-8.88,7.53-8.88c2.32-.15,4.52,1.07,5.64,3.11v-2.81h3ZM106.36,80.6c0,4.06,2.08,6.34,5,6.34,2.68,0,5-1.82,5-6.34s-2.34-6.3-5-6.3c-2.92,0-5,2.24-5,6.3Z"/>
    <path d="M130.61,75.03c-2.77,0-4.16,1.55-4.16,5.44v9.31h-3v-17.76h2.93v3.1c.87-1.97,2.84-3.23,5-3.2.3-.02.59-.02.89,0v3.2c-.55-.06-1.11-.09-1.66-.09Z"/>
    <path d="M145.52,78.85v-.43c0-3.23-1.82-4.32-4-4.32-2.47,0-3.92,1.35-4.06,3.53h-3.1c.3-3.83,3.66-6,7.13-6,4.88,0,7.1,2.34,7.06,7.33v4.09c-.07,2.24.08,4.49.46,6.7h-3c-.13-.81-.21-1.62-.24-2.44-1.08,1.81-2.93,2.87-6.07,2.87-3.33,0-6.1-1.85-6.1-5.12-.08-4.16,4.6-5.38,11.92-6.21ZM136.84,85.03c0,1.68,1.29,2.8,3.43,2.8,2.81,0,5.48-1.29,5.48-5.48v-1.12c-5.48.56-8.94,1.31-8.94,3.8h.03Z"/>
    <path d="M161.23,71.72c4.29,0,5.84,2.78,5.84,6.84v11.22h-3v-10.33c0-2.74-.46-5.12-3.9-5.12-2.9,0-4.68,2-4.68,5.81v9.64h-3v-17.76h3v2.67c1.2-1.99,3.42-3.14,5.74-2.97Z"/>
    <path d="M174.82,67.54v4.45h3.37v2.41h-3.37v10.53c0,1.85.13,2.31,1.85,2.31h1.52v2.51h-2.18c-3.4,0-4.19-.76-4.19-4.46v-10.86h-2.81v-2.41h2.81v-4.48h3Z"/>
    <path d="M187.08,74.27c-1.75,0-3.73.62-3.73,2.24,0,1.42,1,2.08,2.71,2.41l2.51.49c3.23.63,6.07,1.85,6.07,5.29s-3.17,5.51-7.23,5.51c-4.65,0-7.29-3.07-7.62-6.17h3.17c.28,2.23,2.28,3.84,4.52,3.63,2.27,0,4.12-1,4.12-2.64s-1.68-2.55-3.6-2.94l-2.64-.53c-2.4-.5-5-1.62-5-4.92,0-3.13,3.17-4.95,7.1-4.95s6.44,2.15,7,5.51h-3.14c-.51-2.11-2.16-2.93-4.24-2.93Z"/>
    <path d="M209.12,74.83c1.19-2.05,3.44-3.26,5.81-3.11,4.06,0,7.59,3.4,7.59,9.25s-3.53,9.24-7.59,9.24c-2.37.15-4.62-1.05-5.81-3.11v8.44h-3v-23.52h3v2.81ZM219.26,80.97c0-4.23-2-6.67-5.09-6.67-2.67,0-5.18,2-5.18,6.67s2.51,6.66,5.18,6.66c3.07,0,5.09-2.44,5.09-6.66h0Z"/>
    <path d="M232.86,75.03c-2.77,0-4.16,1.55-4.16,5.44v9.31h-3v-17.76h2.94v3.1c.87-1.98,2.84-3.24,5-3.2.3-.02.59-.02.89,0v3.2c-.55-.06-1.11-.09-1.67-.09Z"/>
    <path d="M244.18,90.21c-4.13,0-8.52-2.81-8.52-9.24s4.39-9.25,8.52-9.25,8.51,2.81,8.51,9.25-4.39,9.24-8.51,9.24ZM249.49,80.97c0-4.72-2.61-6.61-5.31-6.61s-5.32,1.75-5.32,6.61,2.61,6.6,5.32,6.6,5.34-2.03,5.34-6.6h-.03Z"/>
    <path d="M271,72.02v15.38c0,3.63-.66,5.12-1.68,6.24-1.62,1.62-3.85,2.48-6.14,2.34-4,0-6.73-1.85-7.3-5.44h3.21c.39,1.58,1.35,2.8,4.12,2.8,1.34.1,2.66-.38,3.63-1.32.66-.69,1.16-1.52,1.16-3.93v-1.68c-1.13,2.03-3.33,3.23-5.65,3.07-3.92,0-7.52-3.17-7.52-8.88s3.6-8.88,7.52-8.88c2.33-.15,4.53,1.06,5.65,3.11v-2.81h3ZM258.1,80.6c0,4.06,2.07,6.34,5,6.34,2.68,0,5-1.82,5-6.34s-2.34-6.3-5-6.3c-2.93,0-5,2.24-5,6.3h0Z"/>
    <path d="M282.35,75.03c-2.77,0-4.16,1.55-4.16,5.44v9.31h-3v-17.76h2.93v3.1c.87-1.97,2.84-3.24,5-3.2.3-.02.59-.02.89,0v3.2c-.55-.06-1.11-.09-1.66-.09Z"/>
    <path d="M297.23,78.85v-.43c0-3.23-1.82-4.32-4-4.32-2.47,0-3.93,1.35-4.06,3.53h-3.1c.3-3.83,3.66-6,7.13-6,4.88,0,7.09,2.34,7.06,7.33v4.09c-.07,2.24.08,4.49.46,6.7h-3c-.13-.81-.2-1.62-.23-2.44-1.09,1.81-2.93,2.87-6.07,2.87-3.33,0-6.11-1.85-6.11-5.12-.1-4.16,4.62-5.38,11.92-6.21ZM288.52,85.03c0,1.68,1.28,2.8,3.43,2.8,2.81,0,5.48-1.29,5.48-5.48v-1.12c-5.42.56-8.91,1.31-8.91,3.8Z"/>
    <path d="M304.22,89.78v-17.76h3v2.67c1.08-1.92,3.14-3.08,5.34-3,2.71,0,4.33,1.19,5.12,3.14,1.29-2.05,3.58-3.25,6-3.14,4.13,0,5.74,2.78,5.74,6.84v11.22h-3v-10.3c0-2.74-.53-5.12-3.79-5.12-2.58,0-4.3,2-4.3,5.81v9.64h-3v-10.33c0-2.74-.53-5.12-3.79-5.12-2.58,0-4.29,2-4.29,5.81v9.64h-3.03Z"/>
  </g>
</svg>